<svg id="skeletomb_icon" xmlns="http://www.w3.org/2000/svg" width="128" height="128" viewBox="0 0 128 128">
  <path id="skeletomb_icon-2" data-name="skeletomb_icon" d="M46.748-36.915A43.917,43.917,0,0,1,46.4-31.05a27.243,27.243,0,0,1-1.15,4.945A50.763,50.763,0,0,1,43.3-21.16q-1.15,2.53-2.875,5.98-.23.345-.92,1.265T37.892-11.9q-.92,1.093-1.9,2.3T34.212-7.475a6.943,6.943,0,0,0-1.15,1.668,6.943,6.943,0,0,1-1.15,1.668,7.828,7.828,0,0,1-1.783,1.5,16.258,16.258,0,0,0-1.9,1.38A7.2,7.2,0,0,0,26.508.288a10.071,10.071,0,0,1-1.725,1.668,4.379,4.379,0,0,1-1.15.46,2.417,2.417,0,0,0-1.265.8A6.988,6.988,0,0,0,21.16,6.268a20.116,20.116,0,0,0-.287,3.162l.805,8.165a12.065,12.065,0,0,1-.345,2.472q-.345,1.552-1.61,1.552a1.917,1.917,0,0,1-1.84-1.265,5.449,5.449,0,0,1-.575-2.185,16.413,16.413,0,0,1,.805-4.14,24.554,24.554,0,0,0,.8-6.785,11.464,11.464,0,0,0-.23-2.7,2,2,0,0,0-.748-1.207A2.3,2.3,0,0,0,16.5,3.048q-.92.057-2.3.057a1.874,1.874,0,0,0-1.38.46,8.145,8.145,0,0,0-1.15,1.725,1.854,1.854,0,0,1-1.208.92A2.952,2.952,0,0,0,8.912,7.475,4.657,4.657,0,0,0,8.28,9.43q-.058.92-.058,1.725a7.664,7.664,0,0,1-.173,1.61,3.325,3.325,0,0,1-.978,1.61,1.376,1.376,0,0,1-.8,0,1.749,1.749,0,0,1-.92-.46,5.338,5.338,0,0,1-1.61-3.163,18.56,18.56,0,0,0-.92-3.508A4.324,4.324,0,0,0,.805,4.773,5.419,5.419,0,0,0-1.9,3.68a4.315,4.315,0,0,0-2.012.69A4.1,4.1,0,0,0-5.693,6.555a5.307,5.307,0,0,0-.23,1.668q0,.977,0,1.322l.805,10.81a10.639,10.639,0,0,1-.4,2.99q-.4,1.38-2.357,1.38a2.109,2.109,0,0,1-1.553-.517A2.559,2.559,0,0,1-10.12,23a5.671,5.671,0,0,1-.172-1.38V20.47L-9.028,7.82a9.691,9.691,0,0,0-.23-1.61,11.656,11.656,0,0,0-.69-2.242,7.269,7.269,0,0,0-1.208-1.955,2.286,2.286,0,0,0-1.782-.862,3.826,3.826,0,0,0-2.185.977,3.666,3.666,0,0,0-1.495,2.128,18.273,18.273,0,0,0-.345,2.3,5.751,5.751,0,0,1-.69,2.3.9.9,0,0,1-.633.517,2.838,2.838,0,0,1-.862.172A5.851,5.851,0,0,1-20.3,9.43q-.575-.115-.805-1.035-.23-2.3-.345-4.773t-.345-4.888a3.849,3.849,0,0,0-1.84-2.875q-1.61-1.035-2.875-1.725a6.584,6.584,0,0,1-2.012-1.9,19.925,19.925,0,0,0-1.9-2.242q-1.265-1.495-2.7-2.933a11.768,11.768,0,0,1-2.243-3.048q-.92-1.725-1.9-4.025t-1.84-4.427q-.863-2.127-1.437-3.738a11.546,11.546,0,0,1-.575-1.84v-15.3a12.67,12.67,0,0,1,.632-2.243l.978-2.932a61.949,61.949,0,0,1,3.335-7.935,45.508,45.508,0,0,1,4.6-7.015,32.818,32.818,0,0,1,6.5-6.325,66.606,66.606,0,0,1,6.153-4.14,22.135,22.135,0,0,1,4.083-1.725q2.473-.805,4.542-1.38a40.352,40.352,0,0,1,6.267-1.38,47.521,47.521,0,0,1,6.612-.46,48.671,48.671,0,0,1,9.085.92,45.484,45.484,0,0,1,9.6,2.99,45.071,45.071,0,0,1,9.373,5.577,44.69,44.69,0,0,1,8.51,8.683A19.351,19.351,0,0,1,41.8-57.96q.92,2.415,1.84,4.6.575,1.265,1.437,3.507a22.225,22.225,0,0,1,1.208,4.312q.115,1.035.23,2.415t.173,2.7q.057,1.323.058,2.3ZM25.933-49.335q-.46-1.495-1.208-3.45a31.437,31.437,0,0,0-1.9-4.025,36.913,36.913,0,0,0-2.645-4.083,18.745,18.745,0,0,0-3.565-3.623q-.23-.115-.517-.23a1.412,1.412,0,0,0-.518-.115q-.69,1.61-1.552,3.45t-1.783,3.853q-.92,2.013-1.783,4.083t-1.437,3.91a1.035,1.035,0,0,0-.345.92v.805h9.89q.23,0,1.092-.115t2.013-.345q1.15-.23,2.3-.517T25.933-49.335ZM7.763-33.695q-.46-1.265-1.15-2.76T5.118-39.33q-.805-1.38-1.552-2.645T2.357-43.93Q1.322-41.4,0-38.812t-2.7,5.347Zm-12.19-13.57a38.32,38.32,0,0,0-1.667-3.623Q-7.187-53.015-8.4-55.2t-2.415-4.025A25.512,25.512,0,0,0-12.937-62.1a11.777,11.777,0,0,0-2.818,2.875,40.267,40.267,0,0,0-2.932,4.543,37.271,37.271,0,0,0-2.3,4.888,11.523,11.523,0,0,0-.92,3.8.666.666,0,0,0,.115.46.1.1,0,0,0,.115.115l7.475.23a24.2,24.2,0,0,0,2.76-.173q1.5-.173,2.932-.4A13.535,13.535,0,0,0-5.98-46.4,4.362,4.362,0,0,0-4.427-47.265Zm39.215,11.04a30.222,30.222,0,0,0-.518-5.462q-.518-2.817-.862-4.658a18.235,18.235,0,0,1-3.335,8.165,30.564,30.564,0,0,1-7.36,7.7v.69a4.629,4.629,0,0,0,.4,2.07,2.826,2.826,0,0,1,.345,1.5,2.1,2.1,0,0,1-.92,1.38,15.77,15.77,0,0,1-3.278,1.725l-.345-.345-.69-5.52q-.92.345-2.7.8t-3.8.862q-2.013.4-3.8.633a23.313,23.313,0,0,1-2.817.23H-.057v4.83H-4.6a3.28,3.28,0,0,1-2.127-.575q.115-1.15.173-2.243t.173-2.013a46.033,46.033,0,0,1-5.405-.288,16.766,16.766,0,0,1-5.4-1.782,14.11,14.11,0,0,0-1.265,1.495q-.69.92-1.035.92a5.224,5.224,0,0,1-1.553-.575,6.5,6.5,0,0,1-1.782-1.15l2.53-2.76a14.784,14.784,0,0,1-3.163-2.07,26.8,26.8,0,0,1-3.163-3.105,24.692,24.692,0,0,1-2.53-3.45,7.4,7.4,0,0,1-1.15-3.1,11.325,11.325,0,0,0-.345,1.955q-.115,1.15-.115,1.61A27.047,27.047,0,0,0-29.67-31.51a26.984,26.984,0,0,0,2.358,6.1,20.228,20.228,0,0,0,2.645,3.623A33.417,33.417,0,0,0-21.1-18.4a38.365,38.365,0,0,0,3.968,2.875,34.614,34.614,0,0,0,3.738,2.07,8.14,8.14,0,0,0,1.035-2.185A4.129,4.129,0,0,1-11.1-17.6q1.84.805,3.68,1.84,0,.92-.058,2.013a11.429,11.429,0,0,0,.058,2.012H8.452v-1.61a3.379,3.379,0,0,0-.115-.805,4.275,4.275,0,0,1-.115-1.035q1.725-.575,3.22-1.093a17.061,17.061,0,0,1,2.99-.747q.575,1.15,1.15,2.357t1.15,2.358h.69q1.495-.69,3.22-1.61a30.116,30.116,0,0,0,3.335-2.07A38.343,38.343,0,0,0,27.025-18.4a10.013,10.013,0,0,0,2.243-2.76,12.55,12.55,0,0,0-1.035-.92,2.886,2.886,0,0,1-.805-.92,6.638,6.638,0,0,0,1.61-2.645,1.536,1.536,0,0,1,1.61-1.265,8.069,8.069,0,0,1,1.092.115,6.038,6.038,0,0,1,1.323.345,11.063,11.063,0,0,0,.69-1.955,26.79,26.79,0,0,0,.575-2.645q.23-1.38.345-2.76T34.788-36.225Z" transform="translate(61 98)" fill="#734392"/>
  <path id="skeletomb_icon-3" data-name="skeletomb_icon" d="M46.748-36.915A43.917,43.917,0,0,1,46.4-31.05a27.243,27.243,0,0,1-1.15,4.945A50.763,50.763,0,0,1,43.3-21.16q-1.15,2.53-2.875,5.98-.23.345-.92,1.265T37.892-11.9q-.92,1.093-1.9,2.3T34.212-7.475a6.943,6.943,0,0,0-1.15,1.668,6.943,6.943,0,0,1-1.15,1.668,7.828,7.828,0,0,1-1.783,1.5,16.258,16.258,0,0,0-1.9,1.38A7.2,7.2,0,0,0,26.508.288a10.071,10.071,0,0,1-1.725,1.668,4.379,4.379,0,0,1-1.15.46,2.417,2.417,0,0,0-1.265.8A6.988,6.988,0,0,0,21.16,6.268a20.116,20.116,0,0,0-.287,3.162l.805,8.165a12.065,12.065,0,0,1-.345,2.472q-.345,1.552-1.61,1.552a1.917,1.917,0,0,1-1.84-1.265,5.449,5.449,0,0,1-.575-2.185,16.413,16.413,0,0,1,.805-4.14,24.554,24.554,0,0,0,.8-6.785,11.464,11.464,0,0,0-.23-2.7,2,2,0,0,0-.748-1.207A2.3,2.3,0,0,0,16.5,3.048q-.92.057-2.3.057a1.874,1.874,0,0,0-1.38.46,8.145,8.145,0,0,0-1.15,1.725,1.854,1.854,0,0,1-1.208.92A2.952,2.952,0,0,0,8.912,7.475,4.657,4.657,0,0,0,8.28,9.43q-.058.92-.058,1.725a7.664,7.664,0,0,1-.173,1.61,3.325,3.325,0,0,1-.978,1.61,1.376,1.376,0,0,1-.8,0,1.749,1.749,0,0,1-.92-.46,5.338,5.338,0,0,1-1.61-3.163,18.56,18.56,0,0,0-.92-3.508A4.324,4.324,0,0,0,.805,4.773,5.419,5.419,0,0,0-1.9,3.68a4.315,4.315,0,0,0-2.012.69A4.1,4.1,0,0,0-5.693,6.555a5.307,5.307,0,0,0-.23,1.668q0,.977,0,1.322l.805,10.81a10.639,10.639,0,0,1-.4,2.99q-.4,1.38-2.357,1.38a2.109,2.109,0,0,1-1.553-.517A2.559,2.559,0,0,1-10.12,23a5.671,5.671,0,0,1-.172-1.38V20.47L-9.028,7.82a9.691,9.691,0,0,0-.23-1.61,11.656,11.656,0,0,0-.69-2.242,7.269,7.269,0,0,0-1.208-1.955,2.286,2.286,0,0,0-1.782-.862,3.826,3.826,0,0,0-2.185.977,3.666,3.666,0,0,0-1.495,2.128,18.273,18.273,0,0,0-.345,2.3,5.751,5.751,0,0,1-.69,2.3.9.9,0,0,1-.633.517,2.838,2.838,0,0,1-.862.172A5.851,5.851,0,0,1-20.3,9.43q-.575-.115-.805-1.035-.23-2.3-.345-4.773t-.345-4.888a3.849,3.849,0,0,0-1.84-2.875q-1.61-1.035-2.875-1.725a6.584,6.584,0,0,1-2.012-1.9,19.925,19.925,0,0,0-1.9-2.242q-1.265-1.495-2.7-2.933a11.768,11.768,0,0,1-2.243-3.048q-.92-1.725-1.9-4.025t-1.84-4.427q-.863-2.127-1.437-3.738a11.546,11.546,0,0,1-.575-1.84v-15.3a12.67,12.67,0,0,1,.632-2.243l.978-2.932a61.949,61.949,0,0,1,3.335-7.935,45.508,45.508,0,0,1,4.6-7.015,32.818,32.818,0,0,1,6.5-6.325,66.606,66.606,0,0,1,6.153-4.14,22.135,22.135,0,0,1,4.083-1.725q2.473-.805,4.542-1.38a40.352,40.352,0,0,1,6.267-1.38,47.521,47.521,0,0,1,6.612-.46,48.671,48.671,0,0,1,9.085.92,45.484,45.484,0,0,1,9.6,2.99,45.071,45.071,0,0,1,9.373,5.577,44.69,44.69,0,0,1,8.51,8.683A19.351,19.351,0,0,1,41.8-57.96q.92,2.415,1.84,4.6.575,1.265,1.437,3.507a22.225,22.225,0,0,1,1.208,4.312q.115,1.035.23,2.415t.173,2.7q.057,1.323.058,2.3ZM25.933-49.335q-.46-1.495-1.208-3.45a31.437,31.437,0,0,0-1.9-4.025,36.913,36.913,0,0,0-2.645-4.083,18.745,18.745,0,0,0-3.565-3.623q-.23-.115-.517-.23a1.412,1.412,0,0,0-.518-.115q-.69,1.61-1.552,3.45t-1.783,3.853q-.92,2.013-1.783,4.083t-1.437,3.91a1.035,1.035,0,0,0-.345.92v.805h9.89q.23,0,1.092-.115t2.013-.345q1.15-.23,2.3-.517T25.933-49.335ZM7.763-33.695q-.46-1.265-1.15-2.76T5.118-39.33q-.805-1.38-1.552-2.645T2.357-43.93Q1.322-41.4,0-38.812t-2.7,5.347Zm-12.19-13.57a38.32,38.32,0,0,0-1.667-3.623Q-7.187-53.015-8.4-55.2t-2.415-4.025A25.512,25.512,0,0,0-12.937-62.1a11.777,11.777,0,0,0-2.818,2.875,40.267,40.267,0,0,0-2.932,4.543,37.271,37.271,0,0,0-2.3,4.888,11.523,11.523,0,0,0-.92,3.8.666.666,0,0,0,.115.46.1.1,0,0,0,.115.115l7.475.23a24.2,24.2,0,0,0,2.76-.173q1.5-.173,2.932-.4A13.535,13.535,0,0,0-5.98-46.4,4.362,4.362,0,0,0-4.427-47.265Zm39.215,11.04a30.222,30.222,0,0,0-.518-5.462q-.518-2.817-.862-4.658a18.235,18.235,0,0,1-3.335,8.165,30.564,30.564,0,0,1-7.36,7.7v.69a4.629,4.629,0,0,0,.4,2.07,2.826,2.826,0,0,1,.345,1.5,2.1,2.1,0,0,1-.92,1.38,15.77,15.77,0,0,1-3.278,1.725l-.345-.345-.69-5.52q-.92.345-2.7.8t-3.8.862q-2.013.4-3.8.633a23.313,23.313,0,0,1-2.817.23H-.057v4.83H-4.6a3.28,3.28,0,0,1-2.127-.575q.115-1.15.173-2.243t.173-2.013a46.033,46.033,0,0,1-5.405-.288,16.766,16.766,0,0,1-5.4-1.782,14.11,14.11,0,0,0-1.265,1.495q-.69.92-1.035.92a5.224,5.224,0,0,1-1.553-.575,6.5,6.5,0,0,1-1.782-1.15l2.53-2.76a14.784,14.784,0,0,1-3.163-2.07,26.8,26.8,0,0,1-3.163-3.105,24.692,24.692,0,0,1-2.53-3.45,7.4,7.4,0,0,1-1.15-3.1,11.325,11.325,0,0,0-.345,1.955q-.115,1.15-.115,1.61A27.047,27.047,0,0,0-29.67-31.51a26.984,26.984,0,0,0,2.358,6.1,20.228,20.228,0,0,0,2.645,3.623A33.417,33.417,0,0,0-21.1-18.4a38.365,38.365,0,0,0,3.968,2.875,34.614,34.614,0,0,0,3.738,2.07,8.14,8.14,0,0,0,1.035-2.185A4.129,4.129,0,0,1-11.1-17.6q1.84.805,3.68,1.84,0,.92-.058,2.013a11.429,11.429,0,0,0,.058,2.012H8.452v-1.61a3.379,3.379,0,0,0-.115-.805,4.275,4.275,0,0,1-.115-1.035q1.725-.575,3.22-1.093a17.061,17.061,0,0,1,2.99-.747q.575,1.15,1.15,2.357t1.15,2.358h.69q1.495-.69,3.22-1.61a30.116,30.116,0,0,0,3.335-2.07A38.343,38.343,0,0,0,27.025-18.4a10.013,10.013,0,0,0,2.243-2.76,12.55,12.55,0,0,0-1.035-.92,2.886,2.886,0,0,1-.805-.92,6.638,6.638,0,0,0,1.61-2.645,1.536,1.536,0,0,1,1.61-1.265,8.069,8.069,0,0,1,1.092.115,6.038,6.038,0,0,1,1.323.345,11.063,11.063,0,0,0,.69-1.955,26.79,26.79,0,0,0,.575-2.645q.23-1.38.345-2.76T34.788-36.225Z" transform="translate(61 95)" fill="#ff9563"/>
  <rect id="padding" width="128" height="128" fill="none"/>
</svg>
