<?xml version="1.0" encoding="UTF-8"?>
<svg id="Calque_5" data-name="Calque 5" xmlns="http://www.w3.org/2000/svg" viewBox="0 0 64 128">
  <defs>
    <style>
      .cls-1 {
        fill: #39b54a;
        stroke-width: 0px;
      }
    </style>
  </defs>
  <path class="cls-1" d="m45.78,15.9c1.92,3.79,1.84,8.28,1.27,12.49-.25,1.82-.53,3.84.53,5.35,3.71-3.71,4.42-5.5,4.42-10.74,0-3-5-9-7-12-1.29-1.94-1.11-4.76.35-6.57,1.45-1.82,3.75-3.08,6.07-2.83,2.47.26,4.53,2.19,5.55,4.46s1.14,4.83,1.04,7.31c-.35,8.35,9.23,19.05,3,24.63-3.52,3.15-5.64,5.19-8.08,9.22-2.29,3.78-2.35,8.5-1.73,12.88s1.87,8.68,1.95,13.1c.09,4.44,1.82,8.48,2.86,12.8,1.09,4.54,2.25,8.76,3.52,12.7.6,1.86,1.89,4.4,1.51,6.41-.12.66-.66,2.55-2.25,1.91-1.21-.49-.53-2.57-1.83-2.73-1.47-.18-1.9,1.29-2.41,2.4-.85,1.85-2.62,3.25-4.63,3.62-.6.11-1.23,0-1.69-.39-.81-.7-.46-1.7-.47-2.61-.02-2.34-3.09-4.02-5.07-2.77-1.83,1.15-2.2,3.79-4.27,4.79-.63.3-1.38.32-1.99-.02-1-.55-.9-1.49-.99-2.35-.15-1.57-.99-3.05-2.24-4-.28-.21-.59-.4-.94-.45-.11-.02-.22,0-.32.02-2.84.59-1.38,4.38-3.82,5.43-.83.36-1.79.21-2.57-.26-1.7-1.03-2.34-2.89-3.35-4.47-.36-.57-.81-1.12-1.34-1.55-.94-.78-2.39-.47-2.92.64-.72,1.49-1.61,2.89-3.01,3.73-1.86,1.11-4.86.52-5.35-1.6-.21-.9.07-1.89-.48-2.73-.23-.35-.64-.58-1.05-.52-.53.07-.73.53-.93.95-.55,1.17-1.65,2.28-2.81,2.68s-2.22-.54-2.15-1.71c.24-3.94.89-6.59,2.53-10.47,1.76-4.18,1.9-8.31,3.31-12.63,1.15-3.52,1.48-5.78,3.13-9.3,1.94-4.15,2.6-8.77,3.22-13.31.46-3.34.87-6.98-.86-9.87-1.84-3.07-5.3-5.91-8.49-7.51-8.74-4.38-3-17-3-26,0-4.16-2.76-9.47.67-11.82C5.85,0,10.4,1.56,13.04,4.36s2.9,7.79,2.96,11.64c.11,6.72-3.73,14.19,1.54,17.31.89.53,1.93,1.04,2.96.36.6-.4.95-1.08,1.02-1.79.16-1.62-.75-2.95-1.39-4.34-2.06-4.44-1.38-10.03,1.69-13.85,5.96-7.42,19.6-6.42,23.97,2.21Z"/>
</svg>